<?xml version="1.0" encoding="UTF-8"?> <svg xmlns="http://www.w3.org/2000/svg" width="44" height="44" viewBox="0 0 44 44"><g id="Groupe_256" data-name="Groupe 256" transform="translate(-25 -16)"><rect id="Rectangle_17" data-name="Rectangle 17" width="44" height="44" rx="7" transform="translate(25 16)" fill="#fcfcfc"></rect><g id="person-graduate" transform="translate(35 25.5)"><line id="Ligne_14" data-name="Ligne 14" y2="3.92" transform="translate(12 17.08)" fill="none" stroke="#45474e" stroke-linecap="round" stroke-linejoin="round" stroke-width="1.5"></line><path id="Tracé_84" data-name="Tracé 84" d="M3,21V19.528a3,3,0,0,1,2.412-2.942l2.846-.569a.9.9,0,0,1,.679.134h0a5.522,5.522,0,0,0,6.127,0h0a.9.9,0,0,1,.679-.134l2.846.569A3,3,0,0,1,21,19.528V21" fill="none" stroke="#45474e" stroke-linecap="round" stroke-linejoin="round" stroke-width="1.5"></path><path id="Tracé_85" data-name="Tracé 85" d="M16,7.4V10a4,4,0,0,1-4,4h0a4,4,0,0,1-4-4V7.4" fill="none" stroke="#45474e" stroke-linecap="round" stroke-linejoin="round" stroke-width="1.5"></path><line id="Ligne_15" data-name="Ligne 15" x2="0.724" y2="2.897" transform="translate(14.101 13.405)" fill="none" stroke="#45474e" stroke-linecap="round" stroke-linejoin="round" stroke-width="1.5"></line><line id="Ligne_16" data-name="Ligne 16" x1="0.724" y2="2.896" transform="translate(9.177 13.405)" fill="none" stroke="#45474e" stroke-linecap="round" stroke-linejoin="round" stroke-width="1.5"></line><path id="Tracé_86" data-name="Tracé 86" d="M6.1,6.456l4.455,2.205a3.268,3.268,0,0,0,2.9,0L17.9,6.456a1.064,1.064,0,0,0,0-1.912L13.449,2.339a3.268,3.268,0,0,0-2.9,0L6.1,4.544a1.064,1.064,0,0,0,0,1.912Z" fill="none" stroke="#45474e" stroke-linecap="round" stroke-linejoin="round" stroke-width="1.5"></path><path id="Tracé_87" data-name="Tracé 87" d="M18.5,5.535v2.6" fill="none" stroke="#45474e" stroke-linecap="round" stroke-linejoin="round" stroke-width="1.5"></path><path id="Tracé_88" data-name="Tracé 88" d="M24,0H0V24H24Z" fill="none"></path></g></g></svg> 