<?xml version="1.0" encoding="UTF-8"?> <svg xmlns="http://www.w3.org/2000/svg" width="44" height="44" viewBox="0 0 44 44"><g id="Groupe_260" data-name="Groupe 260" transform="translate(-25 -16)"><rect id="Rectangle_11" data-name="Rectangle 11" width="44" height="44" rx="7" transform="translate(25 16)" fill="#ff9800"></rect><g id="safety-helmet-mine" transform="translate(35 26)"><g id="Groupe_5" data-name="Groupe 5" transform="translate(2 4.447)"><path id="Tracé_18" data-name="Tracé 18" d="M3.5,19h.7a5.954,5.954,0,0,1,3.3,1h0a5.954,5.954,0,0,0,3.3,1h2.4a5.954,5.954,0,0,0,3.3-1h0a5.954,5.954,0,0,1,3.3-1h.7A1.5,1.5,0,0,0,22,17.5h0A1.5,1.5,0,0,0,20.5,16H3.5A1.5,1.5,0,0,0,2,17.5H2A1.5,1.5,0,0,0,3.5,19Z" transform="translate(-2 -4)" fill="none" stroke="#fff" stroke-linecap="round" stroke-linejoin="round" stroke-width="1.5"></path><path id="Tracé_19" data-name="Tracé 19" d="M7,5.8V8H7A1.5,1.5,0,0,0,8.5,9.5h0A1.5,1.5,0,0,0,10,8V6h0a2,2,0,0,1,2-2h0a2,2,0,0,1,2,2V8h0a1.5,1.5,0,0,0,1.5,1.5h0A1.5,1.5,0,0,0,17,8h0V5.8" transform="translate(-2 -4)" fill="none" stroke="#fff" stroke-linecap="round" stroke-linejoin="round" stroke-width="1.5"></path><path id="Tracé_20" data-name="Tracé 20" d="M13.732,5H14a6,6,0,0,1,6,6v5" transform="translate(-2 -4)" fill="none" stroke="#fff" stroke-linecap="round" stroke-linejoin="round" stroke-width="1.5"></path><path id="Tracé_21" data-name="Tracé 21" d="M10.268,5H10a6,6,0,0,0-6,6H4v5" transform="translate(-2 -4)" fill="none" stroke="#fff" stroke-linecap="round" stroke-linejoin="round" stroke-width="1.5"></path></g><rect id="Rectangle_13" data-name="Rectangle 13" width="24" height="24" fill="none"></rect></g></g></svg> 