<?xml version="1.0" encoding="UTF-8"?> <svg xmlns="http://www.w3.org/2000/svg" width="44" height="44" viewBox="0 0 44 44"><g id="Groupe_261" data-name="Groupe 261" transform="translate(-25 -15.816)"><rect id="Rectangle_9" data-name="Rectangle 9" width="44" height="44" rx="7" transform="translate(25 15.816)" fill="#f44336"></rect><g id="suitcase-job-work-checkmark" transform="translate(35 25.131)"><path id="Tracé_31" data-name="Tracé 31" d="M11,21H6a3,3,0,0,1-3-3V9.5A2.5,2.5,0,0,1,5.5,7h13A2.5,2.5,0,0,1,21,9.5V11" fill="none" stroke="#fff" stroke-linecap="round" stroke-linejoin="round" stroke-width="1.5"></path><path id="Tracé_32" data-name="Tracé 32" d="M15.5,7V5a2,2,0,0,0-2-2h-3a2,2,0,0,0-2,2V7" fill="none" stroke="#fff" stroke-linecap="round" stroke-linejoin="round" stroke-width="1.5"></path><line id="Ligne_10" data-name="Ligne 10" x1="9" transform="translate(3 13)" fill="none" stroke="#fff" stroke-linecap="round" stroke-linejoin="round" stroke-width="1.5"></line><circle id="Ellipse_6" data-name="Ellipse 6" cx="4" cy="4" r="4" transform="translate(14 14)" fill="none" stroke="#fff" stroke-linecap="round" stroke-linejoin="round" stroke-width="1.5"></circle><path id="Tracé_33" data-name="Tracé 33" d="M16.75,17.887l1,1,1.5-1.5" fill="none" stroke="#fff" stroke-linecap="round" stroke-linejoin="round" stroke-width="1.5"></path><rect id="Rectangle_14" data-name="Rectangle 14" width="24" height="24" fill="none"></rect></g></g></svg> 