<?xml version="1.0" encoding="UTF-8"?> <svg xmlns="http://www.w3.org/2000/svg" id="Groupe_257" data-name="Groupe 257" width="44" height="44" viewBox="0 0 44 44"><rect id="Rectangle_17" data-name="Rectangle 17" width="44" height="44" rx="7" fill="#fcfcfc"></rect><g id="file-cv-job-work" transform="translate(10 10)"><path id="Tracé_89" data-name="Tracé 89" d="M0,0H24V24H0" fill="none"></path><path id="Tracé_90" data-name="Tracé 90" d="M8,21H5.5A2.5,2.5,0,0,1,3,18.5V8.372A3,3,0,0,1,3.879,6.25L6.25,3.879A3,3,0,0,1,8.372,3H15.5A2.5,2.5,0,0,1,18,5.5V8" fill="none" stroke="#45474e" stroke-linecap="round" stroke-linejoin="round" stroke-width="1.5" fill-rule="evenodd"></path><path id="Tracé_91" data-name="Tracé 91" d="M3.024,8H6.5A1.5,1.5,0,0,0,8,6.5V3.024" fill="none" stroke="#45474e" stroke-linecap="round" stroke-linejoin="round" stroke-width="1.5" fill-rule="evenodd"></path><line id="Ligne_17" data-name="Ligne 17" x2="3" transform="translate(7 12)" fill="none" stroke="#45474e" stroke-linecap="round" stroke-linejoin="round" stroke-width="1.5"></line><line id="Ligne_18" data-name="Ligne 18" x2="1" transform="translate(7 16)" fill="none" stroke="#45474e" stroke-linecap="round" stroke-linejoin="round" stroke-width="1.5"></line><path id="Tracé_92" data-name="Tracé 92" d="M18.5,14.906v-2a1,1,0,0,0-1-1h-2a1,1,0,0,0-1,1v2" fill="none" stroke="#45474e" stroke-linecap="round" stroke-linejoin="round" stroke-width="1.5"></path><rect id="Rectangle_27" data-name="Rectangle 27" width="9" height="6" rx="1.5" transform="translate(12 15)" fill="none" stroke="#45474e" stroke-linecap="round" stroke-linejoin="round" stroke-width="1.5"></rect></g></svg> 