<?xml version="1.0" encoding="UTF-8"?> <svg xmlns="http://www.w3.org/2000/svg" id="Groupe_258" data-name="Groupe 258" width="44" height="44" viewBox="0 0 44 44"><rect id="Rectangle_17" data-name="Rectangle 17" width="44" height="44" rx="7" fill="#fcfcfc"></rect><g id="high-rise-building" transform="translate(10 10)"><g id="Groupe_11" data-name="Groupe 11" transform="translate(2 3)"><path id="Tracé_93" data-name="Tracé 93" d="M8,21V4H8A1,1,0,0,1,9,3h6a1,1,0,0,1,1,1V21" transform="translate(-2 -3)" fill="none" stroke="#45474e" stroke-linecap="round" stroke-linejoin="round" stroke-width="1.5"></path><path id="Tracé_94" data-name="Tracé 94" d="M21,21V7.913h0A.913.913,0,0,0,20.087,7H16" transform="translate(-2 -3)" fill="none" stroke="#45474e" stroke-linecap="round" stroke-linejoin="round" stroke-width="1.5"></path><path id="Tracé_95" data-name="Tracé 95" d="M8,7H3.913A.913.913,0,0,0,3,7.913H3V21" transform="translate(-2 -3)" fill="none" stroke="#45474e" stroke-linecap="round" stroke-linejoin="round" stroke-width="1.5"></path><line id="Ligne_19" data-name="Ligne 19" x2="2.5" transform="translate(14 7)" fill="none" stroke="#45474e" stroke-linecap="round" stroke-linejoin="round" stroke-width="1.5"></line><line id="Ligne_20" data-name="Ligne 20" x2="2.5" transform="translate(14 10)" fill="none" stroke="#45474e" stroke-linecap="round" stroke-linejoin="round" stroke-width="1.5"></line><line id="Ligne_21" data-name="Ligne 21" x2="2.5" transform="translate(14 13)" fill="none" stroke="#45474e" stroke-linecap="round" stroke-linejoin="round" stroke-width="1.5"></line><line id="Ligne_22" data-name="Ligne 22" x2="2.5" transform="translate(3.5 7)" fill="none" stroke="#45474e" stroke-linecap="round" stroke-linejoin="round" stroke-width="1.5"></line><line id="Ligne_23" data-name="Ligne 23" x2="2.5" transform="translate(3.5 10)" fill="none" stroke="#45474e" stroke-linecap="round" stroke-linejoin="round" stroke-width="1.5"></line><line id="Ligne_24" data-name="Ligne 24" x2="2.5" transform="translate(3.5 13)" fill="none" stroke="#45474e" stroke-linecap="round" stroke-linejoin="round" stroke-width="1.5"></line><line id="Ligne_25" data-name="Ligne 25" x2="3" transform="translate(8.5 10)" fill="none" stroke="#45474e" stroke-linecap="round" stroke-linejoin="round" stroke-width="1.5"></line><line id="Ligne_26" data-name="Ligne 26" x2="3" transform="translate(8.5 13)" fill="none" stroke="#45474e" stroke-linecap="round" stroke-linejoin="round" stroke-width="1.5"></line><line id="Ligne_27" data-name="Ligne 27" x2="3" transform="translate(8.5 7)" fill="none" stroke="#45474e" stroke-linecap="round" stroke-linejoin="round" stroke-width="1.5"></line><line id="Ligne_28" data-name="Ligne 28" x2="3" transform="translate(8.5 4)" fill="none" stroke="#45474e" stroke-linecap="round" stroke-linejoin="round" stroke-width="1.5"></line><line id="Ligne_29" data-name="Ligne 29" y2="2" transform="translate(10 16)" fill="none" stroke="#45474e" stroke-linecap="round" stroke-linejoin="round" stroke-width="1.5"></line><line id="Ligne_30" data-name="Ligne 30" x1="20" transform="translate(0 18)" fill="none" stroke="#45474e" stroke-linecap="round" stroke-linejoin="round" stroke-width="1.5"></line></g><rect id="Rectangle_28" data-name="Rectangle 28" width="24" height="24" fill="none"></rect></g></svg> 