<?xml version="1.0" encoding="UTF-8"?> <svg xmlns="http://www.w3.org/2000/svg" width="44" height="44" viewBox="0 0 44 44"><g id="Groupe_263" data-name="Groupe 263" transform="translate(0 0.422)"><rect id="Rectangle_11" data-name="Rectangle 11" width="44" height="44" rx="7" transform="translate(0 -0.422)" fill="#ff9800"></rect><g id="Signal.2" transform="translate(10 10)"><path id="Tracé_312" data-name="Tracé 312" d="M18.364,5.636a9,9,0,0,1,.475,12.2" fill="none"></path><path id="Tracé_313" data-name="Tracé 313" d="M5.636,5.636a8.995,8.995,0,0,0-.475,12.2" fill="none"></path><path id="Tracé_314" data-name="Tracé 314" d="M15.889,8.111a5.482,5.482,0,0,1,.449,7.228" fill="none"></path><path id="Tracé_315" data-name="Tracé 315" d="M0,0H24V24H0Z" fill="none"></path><path id="Tracé_316" data-name="Tracé 316" d="M5.161,17.839a9,9,0,1,1,13.678,0" fill="none" stroke="#fff" stroke-linecap="round" stroke-linejoin="round" stroke-width="1.5"></path><path id="Tracé_317" data-name="Tracé 317" d="M7.661,15.339a5.487,5.487,0,1,1,8.677,0" fill="none" stroke="#fff" stroke-linecap="round" stroke-linejoin="round" stroke-width="1.5"></path><path id="Tracé_318" data-name="Tracé 318" d="M13.579,10.421a2.233,2.233,0,1,1-3.158,0,2.233,2.233,0,0,1,3.158,0" fill="none" stroke="#fff" stroke-linecap="round" stroke-linejoin="round" stroke-width="1.5"></path><path id="Tracé_319" data-name="Tracé 319" d="M12,14.23V21" fill="none" stroke="#fff" stroke-linecap="round" stroke-linejoin="round" stroke-width="1.5"></path><path id="Tracé_320" data-name="Tracé 320" d="M9,21h6" fill="none" stroke="#fff" stroke-linecap="round" stroke-linejoin="round" stroke-width="1.5"></path></g></g></svg> 