<?xml version="1.0" encoding="UTF-8"?> <svg xmlns="http://www.w3.org/2000/svg" width="44" height="44" viewBox="0 0 44 44"><g id="Groupe_268" data-name="Groupe 268" transform="translate(-1052 -1964)"><rect id="Rectangle_465" data-name="Rectangle 465" width="44" height="44" rx="7" transform="translate(1052 1964)" fill="#f44336"></rect><g id="Сertificate_Diploma" data-name="Сertificate, Diploma" transform="translate(1062 1974)"><path id="Tracé_221" data-name="Tracé 221" d="M0,0H24V24H0Z" fill="none"></path><path id="Tracé_222" data-name="Tracé 222" d="M9,6.67h6" fill="none" stroke="#fff" stroke-linecap="round" stroke-linejoin="round" stroke-width="1.5"></path><path id="Tracé_223" data-name="Tracé 223" d="M7,10.67H17" fill="none" stroke="#fff" stroke-linecap="round" stroke-linejoin="round" stroke-width="1.5"></path><path id="Tracé_224" data-name="Tracé 224" d="M13.944,15.181a2.75,2.75,0,1,1-3.889,0,2.75,2.75,0,0,1,3.889,0" fill="none" stroke="#fff" stroke-linecap="round" stroke-linejoin="round" stroke-width="1.482"></path><path id="Tracé_225" data-name="Tracé 225" d="M14.75,17.125l2.75,2.75L14.875,22.5,12.24,19.865" fill="none" stroke="#fff" stroke-linecap="round" stroke-linejoin="round" stroke-width="1.482"></path><path id="Tracé_226" data-name="Tracé 226" d="M11.76,19.865,9.125,22.5,6.5,19.875l2.75-2.75" fill="none" stroke="#fff" stroke-linecap="round" stroke-linejoin="round" stroke-width="1.482"></path><path id="Tracé_227" data-name="Tracé 227" d="M6.5,19.875H5a2,2,0,0,1-2-2V4.5a2,2,0,0,1,2-2H19a2,2,0,0,1,2,2V17.875a2,2,0,0,1-2,2H17.5" fill="none" stroke="#fff" stroke-linecap="round" stroke-linejoin="round" stroke-width="1.482"></path></g></g></svg> 