<?xml version="1.0" encoding="UTF-8"?> <svg xmlns="http://www.w3.org/2000/svg" width="44" height="44" viewBox="0 0 44 44"><g id="Groupe_266" data-name="Groupe 266" transform="translate(-1067.5 -2043)"><rect id="Rectangle_463" data-name="Rectangle 463" width="44" height="44" rx="7" transform="translate(1067.5 2043)" fill="#2196f3"></rect><g id="browser-web-windows-favorite" transform="translate(1077.5 2053)"><path id="Tracé_384" data-name="Tracé 384" d="M0,0H24V24H0Z" fill="none"></path><path id="Tracé_385" data-name="Tracé 385" d="M18.954,21H5.046a2,2,0,0,1-2-2V11a2,2,0,0,1,2-2H18.954a2,2,0,0,1,2,2v8A2,2,0,0,1,18.954,21Z" fill="none" stroke="#fff" stroke-linecap="round" stroke-linejoin="round" stroke-width="1.5"></path><path id="Tracé_386" data-name="Tracé 386" d="M4.782,9V8a2,2,0,0,1,2-2H17.217a2,2,0,0,1,2,2V9" fill="none" stroke="#fff" stroke-linecap="round" stroke-linejoin="round" stroke-width="1.5"></path><path id="Tracé_387" data-name="Tracé 387" d="M6.516,6V5a2,2,0,0,1,2-2h6.969a2,2,0,0,1,2,2V6" fill="none" stroke="#fff" stroke-linecap="round" stroke-linejoin="round" stroke-width="1.5"></path><path id="Tracé_388" data-name="Tracé 388" d="M12,13.035a1.56,1.56,0,0,1,1.2-.535,1.787,1.787,0,0,1,1.719,1.8c0,1.812-2.34,3.2-2.917,3.2s-2.917-1.389-2.917-3.2A1.786,1.786,0,0,1,10.8,12.5,1.56,1.56,0,0,1,12,13.035Z" fill="none" stroke="#fff" stroke-linecap="round" stroke-linejoin="round" stroke-width="1.5"></path></g></g></svg> 