<?xml version="1.0" encoding="UTF-8"?> <svg xmlns="http://www.w3.org/2000/svg" width="44" height="44" viewBox="0 0 44 44"><g id="Groupe_262" data-name="Groupe 262" transform="translate(-26 -15.184)"><rect id="Rectangle_8" data-name="Rectangle 8" width="44" height="44" rx="7" transform="translate(26 15.184)" fill="#2196f3"></rect><g id="Browser_Internet_Web_Network_Planet" data-name="Browser, Internet, Web, Network, Planet" transform="translate(36 25.131)"><g id="Groupe_124" data-name="Groupe 124" transform="translate(2 3)"><path id="Tracé_321" data-name="Tracé 321" d="M20,21H4a2,2,0,0,1-2-2V5A2,2,0,0,1,4,3H20a2,2,0,0,1,2,2V19A2,2,0,0,1,20,21Z" transform="translate(-2 -3)" fill="none" stroke="#fff" stroke-linecap="round" stroke-linejoin="round" stroke-width="1.5"></path><path id="Tracé_322" data-name="Tracé 322" d="M2,8H22" transform="translate(-2 -3)" fill="none" stroke="#fff" stroke-linecap="round" stroke-linejoin="round" stroke-width="1.5"></path><path id="Tracé_323" data-name="Tracé 323" d="M4.779,5.49a.005.005,0,1,0,.005.005,0,0,0,0,0-.005-.005" transform="translate(-2 -3)" fill="none" stroke="#fff" stroke-linecap="round" stroke-linejoin="round" stroke-width="1.5"></path><path id="Tracé_324" data-name="Tracé 324" d="M7.322,5.49a0,0,0,0,0-.005.005.005.005,0,0,0,.005.005.005.005,0,0,0,0-.01" transform="translate(-2 -3)" fill="none" stroke="#fff" stroke-linecap="round" stroke-linejoin="round" stroke-width="1.5"></path><path id="Tracé_325" data-name="Tracé 325" d="M9.861,5.49a.005.005,0,1,0,.005.005,0,0,0,0,0-.005-.005" transform="translate(-2 -3)" fill="none" stroke="#fff" stroke-linecap="round" stroke-linejoin="round" stroke-width="1.5"></path><path id="Tracé_326" data-name="Tracé 326" d="M12,18.456a5.807,5.807,0,0,0,0-7.911A5.807,5.807,0,0,0,12,18.456Z" transform="translate(-2 -3)" fill="none" stroke="#fff" stroke-linecap="round" stroke-linejoin="round" stroke-width="1.5"></path><path id="Tracé_327" data-name="Tracé 327" d="M12,18.5a4,4,0,1,0-4-4A3.994,3.994,0,0,0,12,18.5Z" transform="translate(-2 -3)" fill="none" stroke="#fff" stroke-linecap="round" stroke-linejoin="round" stroke-width="1.5"></path><path id="Tracé_328" data-name="Tracé 328" d="M16,14.5H8" transform="translate(-2 -3)" fill="none" stroke="#fff" stroke-linecap="round" stroke-linejoin="round" stroke-width="1.5"></path></g><path id="Tracé_329" data-name="Tracé 329" d="M0,0H24V24H0Z" fill="none"></path></g></g></svg> 