<?xml version="1.0" encoding="UTF-8"?> <svg xmlns="http://www.w3.org/2000/svg" width="44" height="44" viewBox="0 0 44 44"><g id="Groupe_265" data-name="Groupe 265" transform="translate(-25 -16)"><rect id="Rectangle_511" data-name="Rectangle 511" width="44" height="44" rx="7" transform="translate(25 16)" fill="#ff9800"></rect><g id="Groupe_126" data-name="Groupe 126" transform="translate(34.35 24.309)"><g id="shield-download-arrow" transform="translate(0)"><path id="Tracé_341" data-name="Tracé 341" d="M21.1,13.641c0,4.034-4.964,7.031-7.332,8.234a2.677,2.677,0,0,1-2.433,0C8.97,20.675,4,17.671,4,13.641V7.815a1.082,1.082,0,0,1,.964-1.06A12.176,12.176,0,0,0,11.24,4.434a2.194,2.194,0,0,1,2.619,0,12.176,12.176,0,0,0,6.276,2.321,1.082,1.082,0,0,1,.964,1.06Z" transform="translate(0.275 0.275)" fill="none" stroke="#fff" stroke-linecap="round" stroke-linejoin="round" stroke-width="1.5"></path><path id="Tracé_342" data-name="Tracé 342" d="M0,0H25.65V25.65H0Z" fill="none"></path></g><path id="Tracé_343" data-name="Tracé 343" d="M11.4,8.369h0a3.412,3.412,0,1,0,0,6.823c2.779,0,3.461-3.412,5.054-4.322h0A6.211,6.211,0,0,0,11.4,8.369Z" transform="translate(1.002 1.045)" fill="none" stroke="#fff" stroke-linecap="round" stroke-linejoin="round" stroke-width="1.5"></path><path id="Tracé_344" data-name="Tracé 344" d="M11.762,11.6h0a6.8,6.8,0,0,0-4.623,3.071" transform="translate(1.054 0.849)" fill="none" stroke="#fff" stroke-linecap="round" stroke-linejoin="round" stroke-width="1.5"></path></g></g></svg> 