<?xml version="1.0" encoding="UTF-8"?> <svg xmlns="http://www.w3.org/2000/svg" width="44" height="44" viewBox="0 0 44 44"><g id="Groupe_259" data-name="Groupe 259" transform="translate(-25 -16)"><rect id="Rectangle_587" data-name="Rectangle 587" width="44" height="44" rx="7" transform="translate(25 16)" fill="#fcfcfc"></rect><g id="User_Profile.2" data-name="User,Profile.2" transform="translate(35 25.5)"><g id="Groupe_10" data-name="Groupe 10" transform="translate(2 2)"><path id="Tracé_77" data-name="Tracé 77" d="M9.914,10.179a2,2,0,1,1-2.828,0,2,2,0,0,1,2.828,0" transform="translate(-2 -2)" fill="none" stroke="#45474e" stroke-linecap="round" stroke-linejoin="round" stroke-width="1.5"></path><path id="Tracé_78" data-name="Tracé 78" d="M15,11h4" transform="translate(-2 -2)" fill="none" stroke="#45474e" stroke-linecap="round" stroke-linejoin="round" stroke-width="1.5"></path><path id="Tracé_79" data-name="Tracé 79" d="M18,14.5H15" transform="translate(-2 -2)" fill="none" stroke="#45474e" stroke-linecap="round" stroke-linejoin="round" stroke-width="1.5"></path><path id="Tracé_80" data-name="Tracé 80" d="M12,18.041a3.088,3.088,0,0,0-.771-1.124h0a3.091,3.091,0,0,0-2.1-.824H7.871a3.086,3.086,0,0,0-2.1.824h0A3.072,3.072,0,0,0,5,18.041" transform="translate(-2 -2)" fill="none" stroke="#45474e" stroke-linecap="round" stroke-linejoin="round" stroke-width="1.5"></path><path id="Tracé_81" data-name="Tracé 81" d="M13,7H11a1,1,0,0,1-1-1V3a1,1,0,0,1,1-1h2a1,1,0,0,1,1,1V6A1,1,0,0,1,13,7Z" transform="translate(-2 -2)" fill="none" stroke="#45474e" stroke-linecap="round" stroke-linejoin="round" stroke-width="1.5"></path><path id="Tracé_82" data-name="Tracé 82" d="M10,5H4.041A2.041,2.041,0,0,0,2,7.041V19a2,2,0,0,0,2,2H20a2,2,0,0,0,2-2V7a2,2,0,0,0-2-2H14" transform="translate(-2 -2)" fill="none" stroke="#45474e" stroke-linecap="round" stroke-linejoin="round" stroke-width="1.5"></path></g><path id="Tracé_83" data-name="Tracé 83" d="M0,0H24V24H0Z" fill="none"></path></g></g></svg> 