<?xml version="1.0" encoding="UTF-8"?> <svg xmlns="http://www.w3.org/2000/svg" width="44" height="44" viewBox="0 0 44 44"><g id="Groupe_264" data-name="Groupe 264" transform="translate(-27 -15.816)"><rect id="Rectangle_10" data-name="Rectangle 10" width="44" height="44" rx="7" transform="translate(27 15.816)" fill="#4caf50"></rect><g id="insurance-hands-heart" transform="translate(37 25.869)"><path id="Tracé_330" data-name="Tracé 330" d="M19,15.5v-4a1.5,1.5,0,0,1,3,0v6.556a4,4,0,0,1-.422,1.789L21,21" fill="none" stroke="#fff" stroke-linecap="round" stroke-linejoin="round" stroke-width="1.5"></path><path id="Tracé_331" data-name="Tracé 331" d="M14,21V18.087a2,2,0,0,1,.4-1.2l1.678-2.237a1.623,1.623,0,0,1,2.447-.174h0a1.623,1.623,0,0,1,.151,2.122L17.623,18" fill="none" stroke="#fff" stroke-linecap="round" stroke-linejoin="round" stroke-width="1.5"></path><path id="Tracé_332" data-name="Tracé 332" d="M5,15.5v-4a1.5,1.5,0,1,0-3,0v6.556a4,4,0,0,0,.422,1.789L3,21" fill="none" stroke="#fff" stroke-linecap="round" stroke-linejoin="round" stroke-width="1.5"></path><path id="Tracé_333" data-name="Tracé 333" d="M10,21V18.087a2,2,0,0,0-.4-1.2L7.922,14.649a1.623,1.623,0,0,0-2.447-.174h0A1.623,1.623,0,0,0,5.325,16.6L6.377,18" fill="none" stroke="#fff" stroke-linecap="round" stroke-linejoin="round" stroke-width="1.5"></path><path id="Tracé_334" data-name="Tracé 334" d="M13.555,10.356A2.2,2.2,0,0,1,12,11h0a2.2,2.2,0,0,1-1.555-.644L7.81,7.721A2.765,2.765,0,0,1,11.721,3.81L12,4.089l.279-.279A2.765,2.765,0,1,1,16.19,7.721Z" fill="none" stroke="#fff" stroke-linecap="round" stroke-linejoin="round" stroke-width="1.5"></path><path id="Tracé_335" data-name="Tracé 335" d="M0,0H24V24H0Z" fill="none"></path></g></g></svg> 