<?xml version="1.0" encoding="UTF-8"?> <svg xmlns="http://www.w3.org/2000/svg" id="Groupe_201" data-name="Groupe 201" width="44" height="44" viewBox="0 0 44 44"><rect id="Rectangle_513" data-name="Rectangle 513" width="44" height="44" rx="7" fill="#ff9800"></rect><g id="chip-microchip" transform="translate(10 10)"><g id="Groupe_123" data-name="Groupe 123" transform="translate(3 3)"><path id="Tracé_310" data-name="Tracé 310" d="M15,19H9a4.012,4.012,0,0,1-4-4V9H5A4.012,4.012,0,0,1,9,5h6a4.012,4.012,0,0,1,4,4v6h0a4.012,4.012,0,0,1-4,4Z" transform="translate(-3 -3)" fill="none" stroke="#fff" stroke-linecap="round" stroke-linejoin="round" stroke-width="1.5"></path><line id="Ligne_53" data-name="Ligne 53" y1="2" transform="translate(10.38)" fill="none" stroke="#fff" stroke-linecap="round" stroke-linejoin="round" stroke-width="1.5"></line><line id="Ligne_54" data-name="Ligne 54" y1="2.17" transform="translate(13.15)" fill="none" stroke="#fff" stroke-linecap="round" stroke-linejoin="round" stroke-width="1.5"></line><line id="Ligne_55" data-name="Ligne 55" y1="2.17" transform="translate(4.85)" fill="none" stroke="#fff" stroke-linecap="round" stroke-linejoin="round" stroke-width="1.5"></line><line id="Ligne_56" data-name="Ligne 56" y1="2" transform="translate(7.62)" fill="none" stroke="#fff" stroke-linecap="round" stroke-linejoin="round" stroke-width="1.5"></line><line id="Ligne_57" data-name="Ligne 57" y1="2" transform="translate(10.38 16)" fill="none" stroke="#fff" stroke-linecap="round" stroke-linejoin="round" stroke-width="1.5"></line><line id="Ligne_58" data-name="Ligne 58" y1="2.17" transform="translate(13.15 15.83)" fill="none" stroke="#fff" stroke-linecap="round" stroke-linejoin="round" stroke-width="1.5"></line><line id="Ligne_59" data-name="Ligne 59" y1="2.17" transform="translate(4.85 15.83)" fill="none" stroke="#fff" stroke-linecap="round" stroke-linejoin="round" stroke-width="1.5"></line><line id="Ligne_60" data-name="Ligne 60" y1="2" transform="translate(7.62 16)" fill="none" stroke="#fff" stroke-linecap="round" stroke-linejoin="round" stroke-width="1.5"></line><line id="Ligne_61" data-name="Ligne 61" x2="2" transform="translate(16 10.38)" fill="none" stroke="#fff" stroke-linecap="round" stroke-linejoin="round" stroke-width="1.5"></line><line id="Ligne_62" data-name="Ligne 62" x2="2.17" transform="translate(15.83 13.15)" fill="none" stroke="#fff" stroke-linecap="round" stroke-linejoin="round" stroke-width="1.5"></line><line id="Ligne_63" data-name="Ligne 63" x2="2.17" transform="translate(15.83 4.85)" fill="none" stroke="#fff" stroke-linecap="round" stroke-linejoin="round" stroke-width="1.5"></line><line id="Ligne_64" data-name="Ligne 64" x2="2" transform="translate(16 7.62)" fill="none" stroke="#fff" stroke-linecap="round" stroke-linejoin="round" stroke-width="1.5"></line><line id="Ligne_65" data-name="Ligne 65" x2="2" transform="translate(0 10.38)" fill="none" stroke="#fff" stroke-linecap="round" stroke-linejoin="round" stroke-width="1.5"></line><line id="Ligne_66" data-name="Ligne 66" x2="2.17" transform="translate(0 13.15)" fill="none" stroke="#fff" stroke-linecap="round" stroke-linejoin="round" stroke-width="1.5"></line><line id="Ligne_67" data-name="Ligne 67" x2="2.17" transform="translate(0 4.85)" fill="none" stroke="#fff" stroke-linecap="round" stroke-linejoin="round" stroke-width="1.5"></line><line id="Ligne_68" data-name="Ligne 68" x2="2" transform="translate(0 7.62)" fill="none" stroke="#fff" stroke-linecap="round" stroke-linejoin="round" stroke-width="1.5"></line><path id="Tracé_311" data-name="Tracé 311" d="M14,16H10a2.006,2.006,0,0,1-2-2V10H8a2.006,2.006,0,0,1,2-2h4a2.006,2.006,0,0,1,2,2v4h0a2.006,2.006,0,0,1-2,2Z" transform="translate(-3 -3)" fill="none" stroke="#fff" stroke-linecap="round" stroke-linejoin="round" stroke-width="1.5"></path></g><rect id="Rectangle_507" data-name="Rectangle 507" width="24" height="24" fill="none"></rect></g></svg> 