<?xml version="1.0" encoding="UTF-8"?> <svg xmlns="http://www.w3.org/2000/svg" id="Groupe_205" data-name="Groupe 205" width="44" height="44" viewBox="0 0 44 44"><rect id="Rectangle_515" data-name="Rectangle 515" width="44" height="44" rx="7" fill="#2196f3"></rect><g id="high-rise-building" transform="translate(10 10)"><g id="Groupe_128" data-name="Groupe 128" transform="translate(2 3)"><path id="Tracé_354" data-name="Tracé 354" d="M8,21V4H8A1,1,0,0,1,9,3h6a1,1,0,0,1,1,1V21" transform="translate(-2 -3)" fill="none" stroke="#fff" stroke-linecap="round" stroke-linejoin="round" stroke-width="1.5"></path><path id="Tracé_355" data-name="Tracé 355" d="M21,21V7.913h0A.913.913,0,0,0,20.087,7H16" transform="translate(-2 -3)" fill="none" stroke="#fff" stroke-linecap="round" stroke-linejoin="round" stroke-width="1.5"></path><path id="Tracé_356" data-name="Tracé 356" d="M8,7H3.913A.913.913,0,0,0,3,7.913H3V21" transform="translate(-2 -3)" fill="none" stroke="#fff" stroke-linecap="round" stroke-linejoin="round" stroke-width="1.5"></path><line id="Ligne_71" data-name="Ligne 71" x2="2.5" transform="translate(14 7)" fill="none" stroke="#fff" stroke-linecap="round" stroke-linejoin="round" stroke-width="1.5"></line><line id="Ligne_72" data-name="Ligne 72" x2="2.5" transform="translate(14 10)" fill="none" stroke="#fff" stroke-linecap="round" stroke-linejoin="round" stroke-width="1.5"></line><line id="Ligne_73" data-name="Ligne 73" x2="2.5" transform="translate(14 13)" fill="none" stroke="#fff" stroke-linecap="round" stroke-linejoin="round" stroke-width="1.5"></line><line id="Ligne_74" data-name="Ligne 74" x2="2.5" transform="translate(3.5 7)" fill="none" stroke="#fff" stroke-linecap="round" stroke-linejoin="round" stroke-width="1.5"></line><line id="Ligne_75" data-name="Ligne 75" x2="2.5" transform="translate(3.5 10)" fill="none" stroke="#fff" stroke-linecap="round" stroke-linejoin="round" stroke-width="1.5"></line><line id="Ligne_76" data-name="Ligne 76" x2="2.5" transform="translate(3.5 13)" fill="none" stroke="#fff" stroke-linecap="round" stroke-linejoin="round" stroke-width="1.5"></line><line id="Ligne_77" data-name="Ligne 77" x2="3" transform="translate(8.5 10)" fill="none" stroke="#fff" stroke-linecap="round" stroke-linejoin="round" stroke-width="1.5"></line><line id="Ligne_78" data-name="Ligne 78" x2="3" transform="translate(8.5 13)" fill="none" stroke="#fff" stroke-linecap="round" stroke-linejoin="round" stroke-width="1.5"></line><line id="Ligne_79" data-name="Ligne 79" x2="3" transform="translate(8.5 7)" fill="none" stroke="#fff" stroke-linecap="round" stroke-linejoin="round" stroke-width="1.5"></line><line id="Ligne_80" data-name="Ligne 80" x2="3" transform="translate(8.5 4)" fill="none" stroke="#fff" stroke-linecap="round" stroke-linejoin="round" stroke-width="1.5"></line><line id="Ligne_81" data-name="Ligne 81" y2="2" transform="translate(10 16)" fill="none" stroke="#fff" stroke-linecap="round" stroke-linejoin="round" stroke-width="1.5"></line><line id="Ligne_82" data-name="Ligne 82" x1="20" transform="translate(0 18)" fill="none" stroke="#fff" stroke-linecap="round" stroke-linejoin="round" stroke-width="1.5"></line></g><rect id="Rectangle_509" data-name="Rectangle 509" width="24" height="24" fill="none"></rect></g></svg> 